<svg width="15" height="17" viewBox="0 0 15 17" fill="none" xmlns="http://www.w3.org/2000/svg">
<g clip-path="url(#clip0_13_452)">
<path d="M13.502 3.47672C13.6687 3.64339 13.8116 3.86958 13.9306 4.15529C14.0497 4.44101 14.1092 4.70291 14.1092 4.94101V15.2267C14.1092 15.4648 14.0259 15.6672 13.8592 15.8339C13.6925 16.0005 13.4901 16.0839 13.252 16.0839H1.25204C1.01395 16.0839 0.811564 16.0005 0.644897 15.8339C0.478231 15.6672 0.394897 15.4648 0.394897 15.2267V0.941005C0.394897 0.70291 0.478231 0.500529 0.644897 0.333862C0.811564 0.167196 1.01395 0.0838623 1.25204 0.0838623H9.25204C9.49014 0.0838623 9.75204 0.143386 10.0378 0.262434C10.3235 0.381481 10.5497 0.524339 10.7163 0.691005L13.502 3.47672ZM9.53776 1.29815V4.65529H12.8949C12.8354 4.48267 12.7699 4.36065 12.6985 4.28922L9.90383 1.49458C9.8324 1.42315 9.71037 1.35767 9.53776 1.29815ZM12.9663 14.941V5.79815H9.25204C9.01395 5.79815 8.81156 5.71482 8.6449 5.54815C8.47823 5.38148 8.3949 5.1791 8.3949 4.94101V1.22672H1.53775V14.941H12.9663ZM3.82347 7.22672C3.82347 7.14339 3.85025 7.07493 3.90383 7.02136C3.9574 6.96779 4.02585 6.94101 4.10918 6.94101H10.3949C10.4782 6.94101 10.5467 6.96779 10.6003 7.02136C10.6538 7.07493 10.6806 7.14339 10.6806 7.22672V7.79815C10.6806 7.88148 10.6538 7.94993 10.6003 8.00351C10.5467 8.05708 10.4782 8.08386 10.3949 8.08386H4.10918C4.02585 8.08386 3.9574 8.05708 3.90383 8.00351C3.85025 7.94993 3.82347 7.88148 3.82347 7.79815V7.22672ZM10.3949 9.22672C10.4782 9.22672 10.5467 9.25351 10.6003 9.30708C10.6538 9.36065 10.6806 9.4291 10.6806 9.51243V10.0839C10.6806 10.1672 10.6538 10.2356 10.6003 10.2892C10.5467 10.3428 10.4782 10.3696 10.3949 10.3696H4.10918C4.02585 10.3696 3.9574 10.3428 3.90383 10.2892C3.85025 10.2356 3.82347 10.1672 3.82347 10.0839V9.51243C3.82347 9.4291 3.85025 9.36065 3.90383 9.30708C3.9574 9.25351 4.02585 9.22672 4.10918 9.22672H10.3949ZM10.3949 11.5124C10.4782 11.5124 10.5467 11.5392 10.6003 11.5928C10.6538 11.6464 10.6806 11.7148 10.6806 11.7981V12.3696C10.6806 12.4529 10.6538 12.5214 10.6003 12.5749C10.5467 12.6285 10.4782 12.6553 10.3949 12.6553H4.10918C4.02585 12.6553 3.9574 12.6285 3.90383 12.5749C3.85025 12.5214 3.82347 12.4529 3.82347 12.3696V11.7981C3.82347 11.7148 3.85025 11.6464 3.90383 11.5928C3.9574 11.5392 4.02585 11.5124 4.10918 11.5124H10.3949Z" fill="white"/>
</g>
<defs>
<clipPath id="clip0_13_452">
<rect width="13.715" height="16" fill="white" transform="translate(0.394531 0.0838623)"/>
</clipPath>
</defs>
</svg>
