<svg width="24" height="24" viewBox="0 0 24 24" fill="none" xmlns="http://www.w3.org/2000/svg">
<path d="M21 9.14277V20.9293C20.9997 21.2132 20.8877 21.4854 20.6887 21.6861C20.4897 21.8868 20.2198 21.9997 19.9383 22H5.06286C4.78118 22 4.51101 21.8872 4.31172 21.6865C4.11242 21.4857 4.00031 21.2134 4 20.9293V3.07065C4.00031 2.78659 4.11242 2.51427 4.31172 2.31351C4.51101 2.11276 4.78118 2 5.06286 2H13.917V8.07095C13.917 8.35521 14.0289 8.62784 14.2283 8.82884C14.4276 9.02985 14.6979 9.14277 14.9798 9.14277H21ZM16.7509 10.9288C16.7509 10.8351 16.714 10.7454 16.6484 10.6792C16.5827 10.613 16.4937 10.5758 16.4009 10.5758H8.60497C8.51214 10.5758 8.42311 10.613 8.35747 10.6792C8.29183 10.7454 8.25496 10.8351 8.25496 10.9288V11.6429C8.25496 11.7365 8.29183 11.8263 8.35747 11.8925C8.42311 11.9587 8.51214 11.9959 8.60497 11.9959H16.3962C16.489 11.9959 16.5781 11.9587 16.6437 11.8925C16.7093 11.8263 16.7462 11.7365 16.7462 11.6429L16.7509 10.9288ZM16.7509 13.7854C16.7509 13.6918 16.714 13.602 16.6484 13.5358C16.5827 13.4696 16.4937 13.4324 16.4009 13.4324H8.60497C8.51214 13.4324 8.42311 13.4696 8.35747 13.5358C8.29183 13.602 8.25496 13.6918 8.25496 13.7854V14.5007C8.25496 14.5943 8.29183 14.6841 8.35747 14.7503C8.42311 14.8165 8.51214 14.8537 8.60497 14.8537H16.3962C16.489 14.8537 16.5781 14.8165 16.6437 14.7503C16.7093 14.6841 16.7462 14.5943 16.7462 14.5007L16.7509 13.7854ZM16.7509 16.6432C16.7509 16.5496 16.714 16.4598 16.6484 16.3936C16.5827 16.3274 16.4937 16.2903 16.4009 16.2903H8.60497C8.51214 16.2903 8.42311 16.3274 8.35747 16.3936C8.29183 16.4598 8.25496 16.5496 8.25496 16.6432V17.3574C8.25496 17.451 8.29183 17.5408 8.35747 17.607C8.42311 17.6731 8.51214 17.7103 8.60497 17.7103H16.3962C16.489 17.7103 16.5781 17.6731 16.6437 17.607C16.7093 17.5408 16.7462 17.451 16.7462 17.3574L16.7509 16.6432ZM20.5578 7.71446H15.3333V2.44591C15.4769 2.53578 15.6106 2.64068 15.7323 2.75887L20.2475 7.31208C20.365 7.43452 20.4691 7.56943 20.5578 7.71446Z" fill="white"/>
</svg>
