<?xml version="1.0" encoding="iso-8859-1"?>
<!-- Generator: Adobe Illustrator 19.0.0, SVG Export Plug-In . SVG Version: 6.00 Build 0)  -->
<svg version="1.1" id="Capa_1" xmlns="http://www.w3.org/2000/svg" xmlns:xlink="http://www.w3.org/1999/xlink" x="0px" y="0px"
	 viewBox="0 0 512 512" style="enable-background:new 0 0 512 512;" xml:space="preserve">
<g>
	<g>
		<path d="M495.914,189.604c-18.965-15.914-47.343-13.424-63.228,5.506l-42.695,50.523V99.129c0-12.279-5.106-24.17-14.008-32.625
			l-56.978-54.125C310.606,4.4,299.6,0.005,288.015,0.005H44.999C20.187,0.005,0,20.192,0,45.004v421.991
			c0,24.812,20.187,44.999,44.999,44.999h299.994c24.812,0,44.999-20.187,44.999-44.999v-81.961
			C391.835,382.851,501.116,253.407,501.46,253C517.447,233.948,514.969,205.592,495.914,189.604z M299.994,35.695
			c60.013,57.008,55.751,52.841,56.876,54.309h-56.876V35.695z M359.992,466.995c0,8.271-6.729,15-15,15H44.999
			c-8.271,0-15-6.729-15-15V45.004c0-8.271,6.729-15,15-15h224.995v74.998c0,8.284,6.716,15,15,15h74.998v161.129
			c-6.443,7.624-58.178,68.843-63.77,75.46c-4.467,5.324-7.682,11.711-9.296,18.47l-13.94,58.356
			c-1.319,5.526,0.596,11.324,4.948,14.976c4.356,3.656,10.399,4.529,15.607,2.272l55.05-23.862
			c4.133-1.792,7.988-4.226,11.401-7.151V466.995z M324.315,369.827l22.978,19.28l-5.11,6.052c-1.487,1.774-3.398,3.199-5.523,4.12
			l-27.524,11.931l6.971-29.178c0.538-2.253,1.609-4.382,3.064-6.116L324.315,369.827z M366.644,366.184l-22.967-19.271
			c2.33-2.757,77.698-91.943,82.91-98.11l22.919,19.231L366.644,366.184z M478.509,233.682l-9.649,11.43l-22.908-19.222
			l9.682-11.457c5.289-6.303,14.71-7.125,20.997-1.849C483.043,217.963,483.75,227.436,478.509,233.682z"/>
	</g>
</g>
<g>
	<g>
		<path d="M224.995,90.003H74.998c-8.284,0-15,6.716-15,15s6.716,15,15,15h149.997c8.284,0,15-6.716,15-15
			S233.279,90.003,224.995,90.003z"/>
	</g>
</g>
<g>
	<g>
		<path d="M314.993,181.001H74.998c-8.284,0-15,6.716-15,15s6.716,15,15,15h239.995c8.284,0,15-6.716,15-15
			S323.277,181.001,314.993,181.001z"/>
	</g>
</g>
<g>
	<g>
		<path d="M314.993,271H74.998c-8.284,0-15,6.716-15,15c0,8.284,6.716,15,15,15h239.995c8.284,0,15-6.716,15-15
			C329.993,277.715,323.277,271,314.993,271z"/>
	</g>
</g>
<g>
	<g>
		<path d="M224.995,360.998H74.998c-8.284,0-15,6.716-15,15s6.716,15,15,15h149.997c8.284,0,15-6.716,15-15
			S233.279,360.998,224.995,360.998z"/>
	</g>
</g>
<g>
</g>
<g>
</g>
<g>
</g>
<g>
</g>
<g>
</g>
<g>
</g>
<g>
</g>
<g>
</g>
<g>
</g>
<g>
</g>
<g>
</g>
<g>
</g>
<g>
</g>
<g>
</g>
<g>
</g>
</svg>
