<?xml version="1.0" encoding="iso-8859-1"?>
<!-- Generator: Adobe Illustrator 19.0.0, SVG Export Plug-In . SVG Version: 6.00 Build 0)  -->
<svg version="1.1" id="Capa_1" xmlns="http://www.w3.org/2000/svg" xmlns:xlink="http://www.w3.org/1999/xlink" x="0px" y="0px"
	 viewBox="0 0 443.734 443.734" style="enable-background:new 0 0 443.734 443.734;" xml:space="preserve">
<g>
	<g>
		<path d="M436.139,54.036c-64.348-43.029-147.684-45.292-214.272-5.82C155.278,8.744,71.942,11.007,7.595,54.036
			C2.849,57.202-0.001,62.531,0,68.236v338.21c-0.009,6.302,3.456,12.095,9.011,15.07c5.552,2.971,12.29,2.643,17.527-0.853
			c56.238-37.631,129.618-37.631,185.856,0c0.222,0.154,0.478,0.188,0.7,0.324c0.222,0.137,0.461,0.375,0.717,0.529
			c0.596,0.255,1.206,0.477,1.826,0.666c0.62,0.282,1.259,0.521,1.911,0.717c0.943,0.218,1.902,0.361,2.867,0.427
			c0.495,0,0.956,0.205,1.451,0.205c0.137,0,0.273,0,0.427,0c0.573-0.042,1.142-0.116,1.707-0.222
			c0.864-0.087,1.72-0.241,2.56-0.461c0.581-0.19,1.151-0.412,1.707-0.666c0.529-0.222,1.092-0.341,1.604-0.614
			c0.239-0.137,0.427-0.341,0.666-0.495c0.239-0.154,0.512-0.205,0.751-0.358c56.238-37.631,129.618-37.631,185.856,0
			c7.822,5.26,18.426,3.183,23.686-4.639c1.913-2.845,2.925-6.2,2.904-9.629V68.236C443.734,62.531,440.884,57.202,436.139,54.036z
			 M204.8,377.279c-54.065-25.349-116.602-25.349-170.667,0V77.656c52.598-31.25,118.069-31.25,170.667,0V377.279z M409.6,377.279
			c-54.065-25.349-116.602-25.349-170.667,0V77.656c52.597-31.25,118.069-31.25,170.667,0V377.279z"/>
	</g>
</g>
<g>
</g>
<g>
</g>
<g>
</g>
<g>
</g>
<g>
</g>
<g>
</g>
<g>
</g>
<g>
</g>
<g>
</g>
<g>
</g>
<g>
</g>
<g>
</g>
<g>
</g>
<g>
</g>
<g>
</g>
</svg>
