<svg width="16" height="16" viewBox="0 0 16 16" fill="none" xmlns="http://www.w3.org/2000/svg">
<path d="M10.8397 3.11074L10.736 2.7236C10.6841 2.52379 10.7489 2.31149 10.9045 2.16163C11.06 2.02426 11.2804 1.96182 11.4878 2.02426C11.6952 2.0867 11.8507 2.24905 11.9026 2.44886L12.3822 4.38454C12.3822 4.39703 12.3822 4.40952 12.3822 4.422C12.3952 4.48445 12.3952 4.5344 12.3822 4.59684C12.3563 4.68426 12.3174 4.77167 12.2785 4.8466L12.3044 4.87158C12.2915 4.88407 12.2785 4.89656 12.2785 4.89656C12.2785 4.90905 12.2655 4.92153 12.2526 4.93402C12.2266 4.959 12.2007 4.97149 12.1748 4.98398C12.0841 5.03393 11.9804 5.07139 11.8637 5.09637L9.71193 5.22125C9.37491 5.23374 9.08973 4.99646 9.07677 4.67177C9.05085 4.34707 9.3101 4.07233 9.63416 4.05984L10.0878 4.03487C8.13051 3.13571 5.75839 3.62276 4.34548 5.22125C2.89369 6.88219 2.84184 9.34237 4.24178 11.0533C5.64172 12.7642 8.13051 13.3011 10.1527 12.3146C12.1748 11.328 13.2248 9.1051 12.6285 7.00707C12.5377 6.69486 12.7322 6.38266 13.0562 6.29524C13.3803 6.20782 13.7044 6.39515 13.7951 6.70735C14.534 9.36735 13.2248 12.1772 10.6712 13.4011C8.33791 14.5125 5.55099 14.038 3.74921 12.3021C3.56773 12.1273 3.39922 11.9524 3.24367 11.7526C1.5067 9.57965 1.59744 6.49505 3.46403 4.422C5.3047 2.37393 8.38976 1.83694 10.8397 3.11074Z" fill="black"/>
</svg>
