<svg width="16" height="16" viewBox="0 0 16 16" fill="none" xmlns="http://www.w3.org/2000/svg">
<path d="M14.8299 7.34783C14.9271 7.56522 15 7.78261 15 8C15 8.24457 14.9271 8.46196 14.8299 8.65217C14.125 9.9837 13.1771 11.0435 11.9861 11.8043C10.7708 12.6196 9.43403 13 8 13C6.54167 13 5.22917 12.6196 4.01389 11.8043C2.79861 11.0435 1.85069 9.9837 1.17014 8.65217C1.04861 8.46196 1 8.24457 1 8C1 7.78261 1.04861 7.56522 1.17014 7.34783C1.85069 6.04348 2.79861 4.9837 4.01389 4.19565C5.22917 3.40761 6.54167 3 8 3C9.43403 3 10.7708 3.40761 11.9861 4.19565C13.1771 4.9837 14.125 6.04348 14.8299 7.34783ZM8 11.6957C9.21528 11.6957 10.3576 11.3696 11.3785 10.6902C12.3993 10.038 13.2257 9.1413 13.8333 8C13.4444 7.32065 12.9826 6.72283 12.4479 6.17935C11.9132 5.63587 11.3056 5.20109 10.625 4.875C11.0625 5.55435 11.3056 6.31522 11.3056 7.13043C11.3056 7.80978 11.1354 8.43478 10.8438 8.97826C10.5521 9.54891 10.1389 10.0109 9.65278 10.337C9.14236 10.663 8.58333 10.8261 8 10.8261C7.39236 10.8261 6.83333 10.663 6.34722 10.337C5.83681 10.0109 5.42361 9.54891 5.13194 8.97826C4.84028 8.43478 4.69444 7.80978 4.69444 7.13043C4.69444 6.53261 4.81597 5.93478 5.08333 5.3913C5.08333 5.82609 5.20486 6.17935 5.47222 6.47826C5.73958 6.77717 6.05556 6.91304 6.44444 6.91304C6.80903 6.91304 7.125 6.77717 7.39236 6.47826C7.65972 6.17935 7.80556 5.82609 7.80556 5.3913C7.80556 4.9837 7.65972 4.63043 7.41667 4.33152C6.29861 4.44022 5.30208 4.82065 4.37847 5.47283C3.45486 6.125 2.70139 6.96739 2.16667 8C2.75 9.1413 3.57639 10.038 4.59722 10.6902C5.61806 11.3696 6.76042 11.6957 8 11.6957Z" fill="white"/>
</svg>
